<svg id="visual" viewBox="0 0 960 540" width="960" height="540" xmlns="http://www.w3.org/2000/svg" xmlns:xlink="http://www.w3.org/1999/xlink" version="1.1"><g><g transform="translate(368 295)"><path d="M78.2 -25.1C90.9 13.4 83.3 58.8 56.2 78.9C29 99 -17.6 93.8 -51.3 69.5C-85 45.3 -105.6 2.2 -94.9 -33.7C-84.2 -69.6 -42.1 -98.2 -4.6 -96.7C32.8 -95.2 65.6 -63.6 78.2 -25.1Z" stroke="#60D394" fill="none" stroke-width="20"></path></g><g transform="translate(530 46)"><path d="M91.2 -28.9C103.6 8.7 89.2 55.8 56.6 79.9C24 104.1 -26.8 105.4 -59.6 81.6C-92.5 57.9 -107.4 9 -94.5 -29.2C-81.6 -67.5 -40.8 -95.2 -0.7 -95C39.4 -94.7 78.7 -66.5 91.2 -28.9Z" stroke="#60D394" fill="none" stroke-width="20"></path></g><g transform="translate(16 479)"><path d="M93.3 -30.3C103.9 2.4 83.8 45 50.7 68.8C17.7 92.6 -28.3 97.4 -55.7 77.4C-83 57.4 -91.7 12.4 -79.3 -22.7C-66.9 -57.8 -33.5 -83 3.9 -84.3C41.3 -85.6 82.7 -62.9 93.3 -30.3Z" stroke="#60D394" fill="none" stroke-width="20"></path></g><g transform="translate(886 98)"><path d="M78.6 -29.4C89.3 7.2 76.6 47.6 47.9 69.2C19.2 90.9 -25.5 93.8 -52.2 73.9C-78.9 54 -87.7 11.3 -76 -26.8C-64.3 -64.9 -32.1 -98.4 0.9 -98.7C34 -99 68 -66.1 78.6 -29.4Z" stroke="#60D394" fill="none" stroke-width="20"></path></g><g transform="translate(750 390)"><path d="M86.8 -29.9C99 9.4 86.1 55.1 56.7 76C27.3 96.9 -18.7 93 -50.4 69.9C-82 46.8 -99.2 4.5 -88.5 -32.9C-77.7 -70.2 -38.8 -102.6 -0.8 -102.3C37.3 -102.1 74.6 -69.2 86.8 -29.9Z" stroke="#60D394" fill="none" stroke-width="20"></path></g><g transform="translate(132 103)"><path d="M89.4 -27.1C102 9.7 88.8 56.9 59.1 77.5C29.5 98 -16.5 92.1 -47.6 68.8C-78.7 45.4 -94.7 4.7 -84.3 -29.1C-73.9 -62.9 -36.9 -89.9 0.7 -90.1C38.4 -90.4 76.8 -63.9 89.4 -27.1Z" stroke="#60D394" fill="none" stroke-width="20"></path></g><g transform="translate(504 529)"><path d="M80.4 -22.4C92.6 11.4 82.9 56.1 55.5 76C28 95.8 -17.2 90.8 -49.3 67.6C-81.4 44.3 -100.5 2.7 -90.1 -28.6C-79.7 -60 -39.8 -81.1 -2.9 -80.2C34.1 -79.3 68.2 -56.3 80.4 -22.4Z" stroke="#60D394" fill="none" stroke-width="20"></path></g></g></svg>