<svg id="visual" viewBox="0 0 900 600" width="900" height="600" xmlns="http://www.w3.org/2000/svg" xmlns:xlink="http://www.w3.org/1999/xlink" version="1.1"><rect x="0" y="0" width="900" height="600" fill="#001220"></rect><defs><linearGradient id="grad1_0" x1="33.3%" y1="0%" x2="100%" y2="100%"><stop offset="20%" stop-color="#83c5be" stop-opacity="1"></stop><stop offset="80%" stop-color="#83c5be" stop-opacity="1"></stop></linearGradient></defs><defs><linearGradient id="grad1_1" x1="33.3%" y1="0%" x2="100%" y2="100%"><stop offset="20%" stop-color="#83c5be" stop-opacity="1"></stop><stop offset="80%" stop-color="#366572" stop-opacity="1"></stop></linearGradient></defs><defs><linearGradient id="grad1_2" x1="33.3%" y1="0%" x2="100%" y2="100%"><stop offset="20%" stop-color="#001220" stop-opacity="1"></stop><stop offset="80%" stop-color="#366572" stop-opacity="1"></stop></linearGradient></defs><defs><linearGradient id="grad2_0" x1="0%" y1="0%" x2="66.7%" y2="100%"><stop offset="20%" stop-color="#83c5be" stop-opacity="1"></stop><stop offset="80%" stop-color="#83c5be" stop-opacity="1"></stop></linearGradient></defs><defs><linearGradient id="grad2_1" x1="0%" y1="0%" x2="66.7%" y2="100%"><stop offset="20%" stop-color="#366572" stop-opacity="1"></stop><stop offset="80%" stop-color="#83c5be" stop-opacity="1"></stop></linearGradient></defs><defs><linearGradient id="grad2_2" x1="0%" y1="0%" x2="66.7%" y2="100%"><stop offset="20%" stop-color="#366572" stop-opacity="1"></stop><stop offset="80%" stop-color="#001220" stop-opacity="1"></stop></linearGradient></defs><g transform="translate(900, 0)"><path d="M0 297.5C-24.9 272.1 -49.9 246.7 -76 234C-102.1 221.2 -129.5 221 -152.8 210.3C-176.2 199.6 -195.6 178.4 -215.2 156.4C-234.8 134.3 -254.7 111.5 -262.5 85.3C-270.3 59.1 -266.2 29.5 -262 0L0 0Z" fill="#1a3948"></path><path d="M0 198.3C-16.6 181.4 -33.3 164.5 -50.7 156C-68.1 147.5 -86.3 147.4 -101.9 140.2C-117.5 133.1 -130.4 118.9 -143.5 104.2C-156.5 89.5 -169.8 74.3 -175 56.9C-180.2 39.4 -177.4 19.7 -174.7 0L0 0Z" fill="#599499"></path><path d="M0 99.2C-8.3 90.7 -16.6 82.2 -25.3 78C-34 73.7 -43.2 73.7 -50.9 70.1C-58.7 66.5 -65.2 59.5 -71.7 52.1C-78.3 44.8 -84.9 37.2 -87.5 28.4C-90.1 19.7 -88.7 9.8 -87.3 0L0 0Z" fill="#83c5be"></path></g><g transform="translate(0, 600)"><path d="M0 -273C22 -252.4 43.9 -231.9 73.9 -227.3C103.8 -222.7 141.6 -234.1 160.5 -220.9C179.3 -207.6 179.2 -169.8 201.4 -146.4C223.7 -122.9 268.4 -113.9 282.9 -91.9C297.4 -69.9 281.7 -35 266 0L0 0Z" fill="#1a3948"></path><path d="M0 -182C14.6 -168.3 29.3 -154.6 49.2 -151.5C69.2 -148.5 94.4 -156.1 107 -147.2C119.5 -138.4 119.4 -113.2 134.3 -97.6C149.1 -82 178.9 -75.9 188.6 -61.3C198.3 -46.6 187.8 -23.3 177.3 0L0 0Z" fill="#599499"></path><path d="M0 -91C7.3 -84.1 14.6 -77.3 24.6 -75.8C34.6 -74.2 47.2 -78 53.5 -73.6C59.8 -69.2 59.7 -56.6 67.1 -48.8C74.6 -41 89.5 -38 94.3 -30.6C99.1 -23.3 93.9 -11.7 88.7 0L0 0Z" fill="#83c5be"></path></g></svg>